<?xml version="1.0" encoding="UTF-8"?>
<svg id="Layer_2" data-name="Layer 2" xmlns="http://www.w3.org/2000/svg" xmlns:xlink="http://www.w3.org/1999/xlink" viewBox="0 0 221.16 191">
  <g id="Layer_1-2" data-name="Layer 1">
    <g>
      <image width="1920" height="1440" transform="scale(.12)" xlink:href="../dpw web/logounri.png"/>
      <g>
        <path d="M25.88,181.77v-6.3h2.82v6.21c0,2.14,1.01,3.02,2.71,3.02s2.71-.88,2.71-3.02v-6.21h2.78v6.3c0,3.31-2.05,5.15-5.51,5.15s-5.51-1.83-5.51-5.15Z" fill="#ff0"/>
        <path d="M50.85,175.46v11.26h-2.31l-6.07-6.83v6.83h-2.78v-11.26h2.33l6.05,6.83v-6.83h2.78Z" fill="#ff0"/>
        <path d="M53.74,175.46h2.82v11.26h-2.82v-11.26Z" fill="#ff0"/>
        <path d="M71.08,175.46l-5.27,11.26h-2.78l-5.25-11.26h3.04l3.71,8.04,3.76-8.04h2.8Z" fill="#ff0"/>
        <path d="M81.51,184.63v2.09h-9.43v-11.26h9.2v2.09h-6.4v2.44h5.65v2.03h-5.65v2.61h6.63Z" fill="#ff0"/>
        <path d="M91.51,186.72l-2.35-3.14h-2.59v3.14h-2.82v-11.26h5.27c3.25,0,5.29,1.56,5.29,4.08,0,1.69-.92,2.93-2.5,3.55l2.73,3.62h-3.03Zm-2.64-9.13h-2.3v3.92h2.3c1.72,0,2.59-.74,2.59-1.96s-.87-1.96-2.59-1.96Z" fill="#ff0"/>
        <path d="M95.58,185.61l.96-1.96c1.03,.69,2.56,1.17,4.02,1.17,1.67,0,2.35-.51,2.35-1.21,0-2.11-7.08-.66-7.08-4.84,0-1.91,1.67-3.51,5.13-3.51,1.53,0,3.1,.34,4.23,1l-.87,1.98c-1.13-.6-2.3-.88-3.37-.88-1.67,0-2.31,.58-2.31,1.29,0,2.07,7.08,.64,7.08,4.78,0,1.88-1.69,3.49-5.17,3.49-1.93,0-3.88-.53-4.96-1.3Z" fill="#ff0"/>
        <path d="M107.63,175.46h2.82v11.26h-2.82v-11.26Z" fill="#ff0"/>
        <path d="M115.86,177.59h-3.9v-2.12h10.61v2.12h-3.9v9.13h-2.82v-9.13Z" fill="#ff0"/>
        <path d="M131.5,184.31h-5.65l-1.08,2.41h-2.89l5.43-11.26h2.78l5.44,11.26h-2.96l-1.08-2.41Zm-.89-1.98l-1.93-4.31-1.93,4.31h3.86Z" fill="#ff0"/>
        <path d="M135.84,185.61l.96-1.96c1.03,.69,2.56,1.17,4.02,1.17,1.67,0,2.35-.51,2.35-1.21,0-2.11-7.08-.66-7.08-4.84,0-1.91,1.67-3.51,5.13-3.51,1.53,0,3.1,.34,4.23,1l-.87,1.98c-1.13-.6-2.3-.88-3.37-.88-1.67,0-2.31,.58-2.31,1.29,0,2.07,7.08,.64,7.08,4.78,0,1.88-1.69,3.49-5.17,3.49-1.93,0-3.88-.53-4.96-1.3Z" fill="#ff0"/>
        <path d="M160.57,186.72l-2.35-3.14h-2.59v3.14h-2.82v-11.26h5.27c3.25,0,5.29,1.56,5.29,4.08,0,1.69-.92,2.93-2.5,3.55l2.73,3.62h-3.03Zm-2.64-9.13h-2.3v3.92h2.3c1.72,0,2.59-.74,2.59-1.96s-.87-1.96-2.59-1.96Z" fill="#ff0"/>
        <path d="M165.6,175.46h2.82v11.26h-2.82v-11.26Z" fill="#ff0"/>
        <path d="M179.32,184.31h-5.65l-1.08,2.41h-2.89l5.43-11.26h2.78l5.44,11.26h-2.96l-1.08-2.41Zm-.89-1.98l-1.93-4.31-1.93,4.31h3.86Z" fill="#ff0"/>
        <path d="M184.26,181.77v-6.3h2.82v6.21c0,2.14,1.01,3.02,2.71,3.02s2.71-.88,2.71-3.02v-6.21h2.78v6.3c0,3.31-2.05,5.15-5.51,5.15s-5.51-1.83-5.51-5.15Z" fill="#ff0"/>
      </g>
    </g>
  </g>
</svg>