<?xml version="1.0" encoding="UTF-8"?>
<svg id="Layer_2" data-name="Layer 2" xmlns="http://www.w3.org/2000/svg" viewBox="0 0 341.3 361.82">
  <g id="Layer_1-2" data-name="Layer 1">
    <g>
      <path d="M18.91,292.36c-4.77,0-8.5-1.33-11.18-3.98-2.69-2.66-4.03-6.46-4.03-11.42v-18.77h7.82v18.58c0,3.17,.65,5.46,1.97,6.89,1.31,1.42,3.14,2.14,5.47,2.14s4.21-.71,5.52-2.14c1.31-1.42,1.97-3.72,1.97-6.89v-18.58h7.63v18.77c0,4.96-1.34,8.77-4.03,11.42-2.69,2.66-6.4,3.98-11.14,3.98Z" fill="#fff"/>
      <path d="M41.81,291.79v-33.6h6.43l19.82,24.19h-3.12v-24.19h7.68v33.6h-6.43l-19.82-24.19h3.12v24.19h-7.68Z" fill="#fff"/>
      <path d="M80.59,291.79v-33.6h7.82v33.6h-7.82Z" fill="#fff"/>
      <path d="M106.22,291.79l-14.54-33.6h8.45l12.67,29.76h-4.95l12.87-29.76h7.73l-14.54,33.6h-7.68Z" fill="#fff"/>
      <path d="M138.96,285.55h18.29v6.24h-26.02v-33.6h25.39v6.24h-17.66v21.12Zm-.58-13.87h16.18v6.1h-16.18v-6.1Z" fill="#fff"/>
      <path d="M163.44,291.79v-33.6h14.54c3.01,0,5.6,.49,7.78,1.46,2.18,.98,3.86,2.38,5.04,4.2,1.18,1.82,1.78,3.98,1.78,6.48s-.59,4.7-1.78,6.5c-1.18,1.81-2.86,3.18-5.04,4.13-2.18,.94-4.77,1.42-7.78,1.42h-10.27l3.55-3.36v12.77h-7.82Zm7.82-11.9l-3.55-3.7h9.84c2.37,0,4.16-.51,5.38-1.54,1.21-1.02,1.82-2.46,1.82-4.32s-.61-3.29-1.82-4.3c-1.22-1.01-3.01-1.51-5.38-1.51h-9.84l3.55-3.7v19.06Zm13.58,11.9l-8.45-12.19h8.35l8.45,12.19h-8.35Z" fill="#fff"/>
      <path d="M209.81,292.36c-2.69,0-5.27-.36-7.75-1.08-2.48-.72-4.47-1.66-5.98-2.81l2.64-5.86c1.41,1.02,3.1,1.86,5.09,2.52,1.98,.66,3.98,.98,6,.98,1.54,0,2.78-.16,3.72-.48,.94-.32,1.64-.74,2.09-1.27s.67-1.14,.67-1.85c0-.9-.35-1.61-1.06-2.14-.7-.53-1.64-.96-2.81-1.3-1.17-.34-2.44-.66-3.82-.96s-2.76-.67-4.15-1.1c-1.39-.43-2.67-1.01-3.84-1.73-1.17-.72-2.1-1.66-2.78-2.83-.69-1.17-1.03-2.63-1.03-4.39,0-1.92,.51-3.67,1.54-5.26s2.58-2.85,4.68-3.79,4.73-1.42,7.9-1.42c2.11,0,4.2,.26,6.26,.77,2.06,.51,3.87,1.25,5.4,2.21l-2.45,5.86c-1.5-.86-3.06-1.51-4.66-1.94-1.6-.43-3.14-.65-4.61-.65s-2.77,.17-3.7,.5-1.61,.79-2.04,1.37c-.43,.58-.65,1.22-.65,1.92,0,.9,.35,1.62,1.06,2.16,.7,.54,1.63,.97,2.78,1.27,1.15,.3,2.43,.61,3.84,.91,1.41,.3,2.8,.68,4.18,1.13,1.38,.45,2.64,1.02,3.79,1.7,1.15,.69,2.09,1.62,2.81,2.78,.72,1.17,1.08,2.62,1.08,4.34,0,1.89-.52,3.62-1.56,5.18-1.04,1.57-2.62,2.83-4.73,3.79-2.11,.96-4.75,1.44-7.92,1.44Z" fill="#fff"/>
      <path d="M229.34,291.79v-33.6h7.82v33.6h-7.82Z" fill="#fff"/>
      <path d="M252.04,291.79v-27.26h-10.75v-6.34h29.28v6.34h-10.75v27.26h-7.78Z" fill="#fff"/>
      <path d="M268.65,291.79l14.93-33.6h7.68l15.07,33.6h-8.16l-12.34-29.66h3.12l-12.34,29.66h-7.97Zm7.54-7.2l1.97-5.9h17.38l2.02,5.9h-21.36Z" fill="#fff"/>
      <path d="M320.92,292.36c-2.69,0-5.27-.36-7.75-1.08-2.48-.72-4.47-1.66-5.98-2.81l2.64-5.86c1.41,1.02,3.1,1.86,5.09,2.52,1.98,.66,3.98,.98,6,.98,1.54,0,2.78-.16,3.72-.48,.94-.32,1.64-.74,2.09-1.27s.67-1.14,.67-1.85c0-.9-.35-1.61-1.06-2.14-.7-.53-1.64-.96-2.81-1.3-1.17-.34-2.44-.66-3.82-.96-1.38-.3-2.76-.67-4.15-1.1-1.39-.43-2.67-1.01-3.84-1.73-1.17-.72-2.1-1.66-2.78-2.83-.69-1.17-1.03-2.63-1.03-4.39,0-1.92,.51-3.67,1.54-5.26s2.58-2.85,4.68-3.79c2.1-.94,4.73-1.42,7.9-1.42,2.11,0,4.2,.26,6.26,.77,2.06,.51,3.86,1.25,5.4,2.21l-2.45,5.86c-1.5-.86-3.06-1.51-4.66-1.94-1.6-.43-3.14-.65-4.61-.65s-2.77,.17-3.7,.5-1.61,.79-2.04,1.37c-.43,.58-.65,1.22-.65,1.92,0,.9,.35,1.62,1.06,2.16,.7,.54,1.63,.97,2.78,1.27,1.15,.3,2.43,.61,3.84,.91,1.41,.3,2.8,.68,4.18,1.13,1.38,.45,2.64,1.02,3.79,1.7,1.15,.69,2.09,1.62,2.81,2.78,.72,1.17,1.08,2.62,1.08,4.34,0,1.89-.52,3.62-1.56,5.18s-2.62,2.83-4.73,3.79c-2.11,.96-4.75,1.44-7.92,1.44Z" fill="#fff"/>
      <path d="M109.77,349.39v-33.6h14.54c3.01,0,5.6,.49,7.78,1.46,2.18,.98,3.86,2.38,5.04,4.2,1.18,1.82,1.78,3.98,1.78,6.48s-.59,4.7-1.78,6.5c-1.19,1.81-2.87,3.18-5.04,4.13-2.18,.94-4.77,1.42-7.78,1.42h-10.27l3.55-3.36v12.77h-7.82Zm7.82-11.9l-3.55-3.7h9.84c2.37,0,4.16-.51,5.38-1.54,1.22-1.02,1.82-2.46,1.82-4.32s-.61-3.29-1.82-4.3-3.01-1.51-5.38-1.51h-9.84l3.55-3.7v19.06Zm13.58,11.9l-8.45-12.19h8.35l8.45,12.19h-8.35Z" fill="#fff"/>
      <path d="M145.05,349.39v-33.6h7.82v33.6h-7.82Z" fill="#fff"/>
      <path d="M156.38,349.39l14.93-33.6h7.68l15.07,33.6h-8.16l-12.34-29.66h3.12l-12.34,29.66h-7.97Zm7.54-7.2l1.97-5.9h17.38l2.02,5.9h-21.36Z" fill="#fff"/>
      <path d="M211.77,349.96c-4.77,0-8.5-1.33-11.18-3.98-2.69-2.66-4.03-6.46-4.03-11.42v-18.77h7.82v18.58c0,3.17,.65,5.46,1.97,6.89,1.31,1.42,3.14,2.14,5.47,2.14s4.21-.71,5.52-2.14c1.31-1.42,1.97-3.72,1.97-6.89v-18.58h7.63v18.77c0,4.96-1.34,8.77-4.03,11.42-2.69,2.66-6.4,3.98-11.14,3.98Z" fill="#fff"/>
    </g>
  </g>
</svg>